<svg width="200" height="200" viewBox="0 0 200 200" xmlns="http://www.w3.org/2000/svg">
  <!-- 现代多层线框 M - 完美居中 -->
  <g transform="translate(100, 100)">
    <!-- 外层光晕 -->
    <path d="M-72,-52 L-48,-68 L-8,-22 L0,12 L8,-22 L48,-68 L72,-52 L72,82 L48,66 L48,8 L38,-5 L0,48 L-38,-5 L-48,8 L-48,66 L-72,82 Z"
          fill="none" stroke="rgba(255,255,255,0.15)" stroke-width="8" stroke-linejoin="round"/>

    <!-- 外层 -->
    <path d="M-70,-50 L-46,-66 L-8,-22 L0,10 L8,-22 L46,-66 L70,-50 L70,80 L46,64 L46,6 L36,-6 L0,46 L-36,-6 L-46,6 L-46,64 L-70,80 Z"
          fill="none" stroke="#555" stroke-width="1.5" stroke-linejoin="round"/>

    <!-- 中层 -->
    <path d="M-65,-46 L-43,-62 L-8,-20 L0,8 L8,-20 L43,-62 L65,-46 L65,76 L43,60 L43,4 L33,-8 L0,42 L-33,-8 L-43,4 L-43,60 L-65,76 Z"
          fill="none" stroke="#888" stroke-width="2.5" stroke-linejoin="round"/>

    <!-- 内层主体 -->
    <path d="M-60,-42 L-40,-58 L-8,-18 L0,6 L8,-18 L40,-58 L60,-42 L60,72 L40,56 L40,2 L30,-10 L0,38 L-30,-10 L-40,2 L-40,56 L-60,72 Z"
          fill="none" stroke="#bbb" stroke-width="3.5" stroke-linejoin="round"/>

    <!-- 顶部强调 -->
    <path d="M-60,-42 L-40,-58 L-8,-18 L0,6 L8,-18 L40,-58 L60,-42"
          fill="none" stroke="#fff" stroke-width="4" stroke-linecap="round" stroke-linejoin="round"/>

    <!-- 中心光点 -->
    <circle cx="0" cy="6" r="3" fill="rgba(255,255,255,0.8)"/>
  </g>
</svg>
